<?xml version="1.0" encoding="utf-8"?>
<!-- Generator: Adobe Illustrator 26.0.3, SVG Export Plug-In . SVG Version: 6.00 Build 0)  -->
<svg version="1.1" id="Layer_1" xmlns="http://www.w3.org/2000/svg" xmlns:xlink="http://www.w3.org/1999/xlink" x="0px" y="0px"
	 viewBox="0 0 109.7 19.8" enable-background="new 0 0 109.7 19.8" xml:space="preserve" width="200px">
<linearGradient id="SVGID_1_" gradientUnits="userSpaceOnUse" x1="-0.9605" y1="5.878" x2="67.2098" y2="27.3248">
	<stop  offset="0" style="stop-color:#00A07A"/>
	<stop  offset="1" style="stop-color:#00A07A"/>
</linearGradient>
<path fill="url(#SVGID_1_)" d="M26.5,15.8h-5.2l-1,2.4h-2L23,7.8h1.9l4.7,10.4h-2L26.5,15.8z M25.9,14.3l-2-4.5L22,14.3H25.9z"/>
<linearGradient id="SVGID_00000160190465979521026230000000009489101240467871_" gradientUnits="userSpaceOnUse" x1="9.080814e-02" y1="2.5364" x2="68.261" y2="23.9832">
	<stop  offset="0" style="stop-color:#00A07A"/>
	<stop  offset="1" style="stop-color:#00A07A"/>
</linearGradient>
<path fill="url(#SVGID_00000160190465979521026230000000009489101240467871_)" d="M37.4,18.2l-2.1-3c-0.1,0-0.2,0-0.4,0h-2.3v3h-1.9
	V7.8h4.3c0.9,0,1.7,0.1,2.4,0.4c0.7,0.3,1.2,0.7,1.5,1.3c0.4,0.6,0.5,1.2,0.5,2c0,0.8-0.2,1.5-0.6,2c-0.4,0.6-0.9,1-1.6,1.3l2.4,3.4
	H37.4z M36.7,9.9c-0.4-0.4-1.1-0.5-1.9-0.5h-2.3v4.1h2.3c0.8,0,1.5-0.2,1.9-0.5c0.4-0.4,0.7-0.9,0.7-1.5S37.2,10.3,36.7,9.9z"/>
<linearGradient id="SVGID_00000105387699824546754680000000358134034891700111_" gradientUnits="userSpaceOnUse" x1="1.0917" y1="-0.645" x2="69.2619" y2="20.8018">
	<stop  offset="0" style="stop-color:#00A07A"/>
	<stop  offset="1" style="stop-color:#00A07A"/>
</linearGradient>
<path fill="url(#SVGID_00000105387699824546754680000000358134034891700111_)" d="M48.4,16.6v1.6h-7.8V7.8h7.6v1.6h-5.7v2.7h5v1.6
	h-5v2.9H48.4z"/>
<linearGradient id="SVGID_00000171689592248502933090000001766693442918234267_" gradientUnits="userSpaceOnUse" x1="1.9826" y1="-3.4768" x2="70.1528" y2="17.97">
	<stop  offset="0" style="stop-color:#00A07A"/>
	<stop  offset="1" style="stop-color:#00A07A"/>
</linearGradient>
<path fill="url(#SVGID_00000171689592248502933090000001766693442918234267_)" d="M58.9,7.8v10.4h-1.6l-5.7-7v7h-1.9V7.8h1.6l5.7,7
	v-7H58.9z"/>
<linearGradient id="SVGID_00000157276807817434700920000015350453037814147498_" gradientUnits="userSpaceOnUse" x1="2.7611" y1="-5.9512" x2="70.9313" y2="15.4956">
	<stop  offset="0" style="stop-color:#00A07A"/>
	<stop  offset="1" style="stop-color:#00A07A"/>
</linearGradient>
<path fill="url(#SVGID_00000157276807817434700920000015350453037814147498_)" d="M67.9,15.8h-5.2l-1,2.4h-2l4.7-10.4h1.9l4.7,10.4
	h-2L67.9,15.8z M67.2,14.3l-2-4.5l-1.9,4.5H67.2z"/>
<path d="M72,7.8h4.5c1.1,0,2.1,0.2,3,0.6c0.9,0.4,1.5,1,2,1.8c0.5,0.8,0.7,1.7,0.7,2.7s-0.2,1.9-0.7,2.7c-0.5,0.8-1.1,1.4-2,1.8
	c-0.9,0.4-1.8,0.6-3,0.6H72V7.8z M76.4,16.5c0.8,0,1.4-0.1,2-0.4c0.6-0.3,1-0.7,1.3-1.2c0.3-0.5,0.5-1.2,0.5-1.9
	c0-0.7-0.2-1.3-0.5-1.9c-0.3-0.5-0.8-1-1.3-1.2c-0.6-0.3-1.3-0.4-2-0.4h-2.5v7.1H76.4z"/>
<path d="M89.9,15.8h-5.2l-1,2.4h-2l4.7-10.4h1.9L93,18.2h-2L89.9,15.8z M89.3,14.3l-2-4.5l-1.9,4.5H89.3z"/>
<path d="M94.7,9.4h-3.4V7.8h8.8v1.6h-3.4v8.8h-1.9V9.4z"/>
<path d="M106.6,15.8h-5.2l-1,2.4h-2l4.7-10.4h1.9l4.7,10.4h-2L106.6,15.8z M106,14.3l-2-4.5l-1.9,4.5H106z"/>
<g>
	
		<linearGradient id="SVGID_00000155824990955094263440000006647237613798492058_" gradientUnits="userSpaceOnUse" x1="0" y1="9.9204" x2="21.9268" y2="9.9204">
		<stop  offset="0" style="stop-color:#00A07A"/>
		<stop  offset="1" style="stop-color:#00A07A"/>
	</linearGradient>
	<path fill="url(#SVGID_00000155824990955094263440000006647237613798492058_)" d="M11,0C5.5,0,0,1.5,0,4.3v11.3
		c0,2.8,5.5,4.3,11,4.3c0.8,0,1.6,0,2.4-0.1l0.7-1.6c-1,0.1-2,0.2-3.1,0.2c-5.7,0-9.4-1.6-9.4-2.7v-1c2,1.3,5.7,2,9.4,2
		c1.3,0,2.7-0.1,4-0.3l0.8-1.7C14.3,14.8,12.8,15,11,15c-5.7,0-9.4-1.6-9.4-2.7v-1c2,1.3,5.7,2,9.4,2c1.9,0,3.9-0.2,5.6-0.6l0.8-1.8
		c-1.6,0.5-3.8,0.8-6.4,0.8c-5.7,0-9.4-1.6-9.4-2.7v-1c2,1.3,5.7,2,9.4,2c2.6,0,5.2-0.3,7.2-1L19.1,7c-0.3,0.2-0.8,0.4-1.3,0.5
		c0,0,0,0,0,0c0,0-0.1,0-0.3,0.1c-0.1,0-0.3,0.1-0.4,0.1c-0.7,0.2-1.8,0.5-3.4,0.6c-0.5,0.1-1.1,0.1-1.8,0.1c-0.3,0-0.7,0-1,0
		c-1.1,0-2-0.1-2.8-0.1C6.8,8.2,5.7,8,5,7.8c-0.1,0-0.3-0.1-0.4-0.1C4.1,7.5,3.8,7.4,3.8,7.4c-1-0.3-1.7-0.7-2-1.1v0h0
		c0,0,0,0-0.1-0.1c0-0.1-0.1-0.1-0.1-0.2c0,0,0-0.1,0-0.1C1.5,5.7,1.4,5.4,1.4,5c0-0.4,0.1-0.7,0.2-0.9C1.7,4,1.7,3.8,1.8,3.8
		c0,0,0,0,0.1-0.1c0.3-0.3,0.9-0.7,1.7-1l1.5,3.4c0,0,0.1,0.3,0.1,0.3c0.2,0.3,0.6,0.8,1.6,0.5c0.1,0,0.2-0.1,0.2-0.1
		c0.8-0.3,2.1-0.6,3.8-0.6H11c0.7,0,1.3,0,1.9,0.1c0.1,0,0.3,0,0.4,0.1c0.6,0.1,1.2,0.3,1.6,0.4c0,0,0.1,0,0.1,0
		c0.1,0,0.2,0.1,0.2,0.1c0.9,0.3,1.4-0.1,1.6-0.4c0.1-0.2,0.1-0.3,0.2-0.3l0.1-0.2l0.2-0.3l1.3-2.8c0,0,0.5,0.2,1,0.4
		c0.1,0.1,0.2,0.1,0.2,0.2c0.1,0.1,0.2,0.1,0.3,0.2C19.9,3.6,20,3.6,20,3.7c0.1,0.1,0.1,0.1,0.2,0.2c0,0.1,0.1,0.1,0.1,0.2
		c0,0.1,0,0.1,0.1,0.2h1.6C21.9,1.5,16.4,0,11,0z M10.3,4.8c-1.5,0.1-3,0.3-4,0.8L4.8,2.3c1.4-0.4,3.3-0.7,5.5-0.7V4.8z M15.6,5.6
		c-1-0.5-2.5-0.8-4-0.8V1.6c2.2,0,4.1,0.3,5.5,0.7L15.6,5.6z"/>
</g>
</svg>
